<svg width="77" height="7" viewBox="0 0 77 7" fill="none" xmlns="http://www.w3.org/2000/svg">
<g filter="url(#filter0_d)">
<path d="M5.98058 4.37984C5.9421 4.50916 5.83769 4.63981 5.76522 4.75938C5.64004 4.96595 5.52068 5.17549 5.40072 5.38405C5.3329 5.50195 5.18968 5.66058 5.21083 5.79522C5.22961 5.91465 5.3525 6.01579 5.43554 6.1115C5.50983 6.19713 5.58103 6.31604 5.68431 6.38092C5.81694 6.46422 6.04021 6.48905 6.19849 6.53192C6.57403 6.63364 6.95147 6.73097 7.3277 6.83106L7.77344 6.94966C7.93095 6.99157 8.07535 7.0346 8.22909 6.95693C8.39047 6.8753 8.44808 6.68961 8.51446 6.5544C8.65552 6.26708 8.8191 5.98652 8.96407 5.70043C9.03855 5.55342 9.09929 5.35096 9.28896 5.27329C9.48882 5.19145 9.71637 5.28814 9.91299 5.33437C10.3031 5.42608 10.6944 5.51746 11.0818 5.61617C11.26 5.66157 11.4701 5.74289 11.6563 5.68821C11.9106 5.61357 11.9811 5.2728 12.0703 5.09157C12.2214 4.78463 12.3761 4.47693 12.515 4.16643C12.566 4.05253 12.6648 3.92464 12.6745 3.80271C12.6815 3.71529 12.6423 3.61241 12.6246 3.52596C12.5987 3.39916 12.611 3.21535 12.495 3.11616C12.3674 3.00694 12.0787 2.98822 11.904 2.95289C11.4607 2.86329 10.985 2.79149 10.5568 2.66408C10.7051 2.44188 10.8038 2.19196 10.9276 1.96034C10.988 1.84731 11.0948 1.71202 11.1098 1.58871C11.1226 1.48309 11.0592 1.36005 11.0349 1.25661C11.0063 1.13531 10.9978 0.9322 10.8737 0.848034C10.7732 0.77991 10.6021 0.77165 10.4776 0.746803C10.1618 0.683791 9.84425 0.622451 9.52668 0.565334C9.29166 0.523063 9.05738 0.477167 8.8234 0.431303C8.67559 0.402334 8.53207 0.367037 8.38757 0.426176C8.23032 0.490574 8.17371 0.645665 8.10402 0.766329C7.95 1.03302 7.79612 1.30009 7.63729 1.56495C7.55169 1.70767 7.4924 1.86568 7.28808 1.92315C7.12406 1.96929 6.93259 1.90376 6.773 1.86877C6.42065 1.79149 6.06653 1.71911 5.71313 1.64493C5.49925 1.60004 5.27591 1.51892 5.07958 1.64325C4.9853 1.70294 4.9409 1.80558 4.88854 1.88916L4.59139 2.36359L4.16546 3.04361C4.10562 3.13913 4.00274 3.25023 4.00005 3.35989C3.99695 3.48549 4.15018 3.61471 4.23049 3.71571C4.30069 3.80399 4.37318 3.93664 4.47589 4.00223C4.59066 4.07553 4.78244 4.09314 4.9207 4.12708C5.12835 4.17805 5.3373 4.22586 5.54474 4.27732C5.68589 4.31234 5.83432 4.36267 5.98057 4.37992L5.98058 4.37984ZM9.49696 0.940306L9.56828 1.23287L9.7545 2.02358C9.63223 2.04445 9.43983 1.97365 9.31866 1.94947C8.9646 1.87882 8.56449 1.83041 8.22908 1.71521C8.28261 1.63106 8.45298 1.56286 8.54605 1.50507C8.75891 1.37288 8.97417 1.24247 9.18989 1.11326C9.2834 1.05725 9.38531 0.969863 9.49696 0.940306H9.49696ZM8.56586 1.64404V1.65193L8.96207 1.73799L9.51677 1.84961L9.35828 1.18541C9.26111 1.20384 9.16845 1.2854 9.09084 1.33398C8.91966 1.44113 8.74252 1.54273 8.56586 1.64402V1.64404ZM4.94051 3.09102C4.96838 3.01381 5.02805 2.94194 5.07148 2.86962C5.16378 2.71596 5.25861 2.56344 5.35408 2.41101C5.38257 2.36553 5.44246 2.21138 5.50722 2.19804C5.55747 2.18769 5.64375 2.22208 5.69331 2.2321C5.85217 2.26423 6.01126 2.29815 6.16877 2.33424C6.29383 2.36289 6.42004 2.38828 6.54517 2.41662C6.57815 2.42404 6.654 2.42875 6.67263 2.4546C6.69382 2.48402 6.64303 2.54327 6.62686 2.56915C6.55996 2.67623 6.49994 2.78597 6.4338 2.89334C6.36444 3.00597 6.29813 3.12004 6.23041 3.23335C6.20957 3.26822 6.18909 3.3391 6.14509 3.35933C6.08816 3.3855 5.90415 3.31749 5.84189 3.30341C5.54813 3.23695 5.21957 3.18964 4.9405 3.09103L4.94051 3.09102ZM5.15842 3.01196C5.36977 3.08457 5.61188 3.11588 5.83198 3.1699C5.88127 3.18199 6.01669 3.23278 6.0634 3.2091C6.09654 3.19232 6.11488 3.14182 6.13157 3.11475C6.18305 3.03116 6.22809 2.94511 6.28018 2.86172C6.32895 2.78365 6.37272 2.70343 6.41937 2.6245C6.4323 2.6026 6.47316 2.55888 6.45471 2.53408C6.43948 2.51361 6.38331 2.50934 6.35697 2.50382L6.06972 2.44362C5.95704 2.41997 5.8449 2.39493 5.73294 2.36923C5.69335 2.36012 5.62743 2.3341 5.58644 2.3454C5.52828 2.36143 5.48962 2.46499 5.4647 2.50596C5.36408 2.67132 5.23701 2.83964 5.15843 3.01202L5.15842 3.01196ZM10.5965 3.15661C11.1902 3.0999 11.8201 3.50249 11.6116 4.00832C11.4816 4.32348 11.0938 4.51402 10.6955 4.55165C10.0626 4.61145 9.47169 4.1601 9.72927 3.6525C9.8733 3.36869 10.225 3.19207 10.5965 3.15661V3.15661ZM10.6163 3.27631C10.4224 3.29688 10.2396 3.3523 10.0947 3.46055C10.0284 3.51012 9.96991 3.57939 9.93066 3.64459C9.66303 4.089 10.1768 4.48305 10.7351 4.42511C11.0959 4.38765 11.4206 4.16242 11.4565 3.86599C11.5 3.50738 11.0376 3.2316 10.6163 3.27631ZM6.87205 4.47484C6.96622 4.60364 7.02999 4.75009 7.10674 4.88601C7.12554 4.91931 7.15795 5.01979 7.2057 5.03101C7.25078 5.04161 7.33738 4.99004 7.37722 4.97545L7.82296 4.81242C7.87392 4.79375 7.98947 4.72418 8.033 4.7765C8.05217 4.79956 8.09725 4.85482 8.07919 4.88294C8.05514 4.9204 7.95695 4.93855 7.91211 4.95546C7.76395 5.01132 7.61361 5.06394 7.46637 5.12131C7.42471 5.13754 7.3184 5.15778 7.30211 5.19609C7.28535 5.23556 7.35784 5.32389 7.37814 5.36046C7.45164 5.49293 7.57323 5.64493 7.60505 5.78744L7.39704 5.85861L7.15511 5.43162L7.05753 5.2846L6.83244 5.3546L6.24802 5.56606C6.22557 5.53458 6.16676 5.46207 6.18978 5.42551C6.21214 5.39002 6.31333 5.36762 6.35697 5.35256C6.5005 5.30302 6.64003 5.2463 6.7829 5.19552C6.82754 5.17964 6.9595 5.1509 6.97445 5.10996C6.98683 5.07608 6.92699 5.00425 6.91018 4.97301C6.85472 4.86995 6.798 4.76692 6.74024 4.66464C6.72425 4.6363 6.67704 4.58101 6.69085 4.54911C6.70794 4.50964 6.82662 4.48478 6.87204 4.47486L6.87205 4.47484Z" fill="#2E2E3D"/>
<path d="M6.92693 6.68701C6.31451 6.52997 5.76719 6.37226 5.71067 6.33654C5.65416 6.30082 5.52358 6.15734 5.4205 6.01769L5.23309 5.76377L5.61843 5.11232C5.83037 4.75401 6.00378 4.43782 6.00378 4.40965C6.00378 4.3815 5.66666 4.27495 5.25463 4.17288C4.59776 4.01016 4.48034 3.95699 4.3013 3.74114C4.189 3.60575 4.09712 3.43933 4.09712 3.37132C4.09712 3.19 5.03007 1.72576 5.18866 1.65818C5.27646 1.62076 5.65908 1.67051 6.27843 1.79987C6.98699 1.94787 7.26994 1.98145 7.37667 1.93024C7.45574 1.8923 7.70112 1.55264 7.92196 1.17544C8.24006 0.632114 8.36373 0.48504 8.51722 0.467521C8.71447 0.445011 10.521 0.758885 10.7858 0.861689C10.8819 0.899 10.9515 1.04155 10.991 1.28232C11.043 1.59955 11.0158 1.71181 10.7799 2.15278C10.578 2.53032 10.536 2.6717 10.6149 2.70882C10.6731 2.7362 11.0692 2.82417 11.4951 2.9043C12.4269 3.07963 12.5904 3.18355 12.5904 3.60052C12.5904 3.95482 11.9595 5.36648 11.7106 5.56909C11.5523 5.69797 11.543 5.697 10.5479 5.44761C9.95126 5.29807 9.46409 5.21165 9.34552 5.23431C9.18967 5.2641 9.07027 5.41294 8.79812 5.91673C8.60668 6.27111 8.4235 6.62791 8.39104 6.70962C8.27942 6.9906 8.1001 6.98783 6.92693 6.68701V6.68701ZM7.60357 5.80648C7.63109 5.77258 7.58951 5.62286 7.51117 5.47377C7.43284 5.32469 7.38337 5.19563 7.40125 5.18699C7.41913 5.17836 7.58002 5.12067 7.75877 5.05881C7.93752 4.99696 8.08377 4.90132 8.08377 4.84629C8.08377 4.71463 7.97317 4.72007 7.56006 4.87206L7.21806 4.99788L7.04438 4.69891C6.90168 4.45326 6.84867 4.41386 6.74715 4.47802C6.64022 4.54559 6.6402 4.58637 6.74703 4.78104C6.91908 5.0946 6.91276 5.10762 6.52378 5.24119C6.30078 5.31777 6.17712 5.40373 6.17712 5.48219C6.17712 5.63452 6.19372 5.63405 6.61687 5.46966C7.0216 5.31244 7.08396 5.32992 7.21751 5.63806C7.31273 5.85778 7.49678 5.93806 7.60358 5.80647L7.60357 5.80648ZM11.0803 4.48918C11.4969 4.34509 11.7733 3.98288 11.6815 3.70123C11.5473 3.28934 10.9172 3.02747 10.3833 3.16167C9.49769 3.38421 9.37885 4.24842 10.1965 4.51941C10.5537 4.63778 10.6613 4.6341 11.0803 4.48917V4.48918ZM6.46215 2.94619C6.59139 2.72028 6.69712 2.50405 6.69712 2.46567C6.6971 2.39734 5.51178 2.12915 5.44261 2.18183C5.42329 2.19654 5.28919 2.40934 5.14462 2.6547L4.88175 3.10082L5.07443 3.16035C5.48893 3.28839 6.05152 3.40569 6.13714 3.38193C6.18666 3.36818 6.33291 3.1721 6.46215 2.94619ZM9.78726 1.925C9.76443 1.86147 9.69846 1.60729 9.64064 1.36014C9.56842 1.05141 9.50172 0.920653 9.4275 0.942338C9.26535 0.989729 8.17043 1.66434 8.17043 1.71686C8.17043 1.77173 9.34385 2.02817 9.62793 2.03539C9.77872 2.03921 9.81843 2.01171 9.78726 1.925V1.925Z" fill="#F9F9F9" fill-opacity="0.38"/>
<path d="M8.97318 1.7029L8.69261 1.64119L8.97318 1.44929C9.28446 1.2364 9.33685 1.24981 9.41346 1.56204C9.47102 1.79662 9.44179 1.80597 8.97318 1.7029V1.7029Z" fill="black" fill-opacity="0.38"/>
<path d="M9.52643 1.99218C9.48009 1.97925 9.22844 1.92782 8.96722 1.87788C8.70601 1.82794 8.43478 1.77008 8.36449 1.74931L8.23669 1.71154L8.28788 1.67073C8.31604 1.64827 8.39039 1.60081 8.4531 1.56525C8.51582 1.52969 8.73509 1.3977 8.9404 1.27193C9.4713 0.946702 9.46448 0.950593 9.48132 0.963417C9.48942 0.969616 9.50663 1.0164 9.51945 1.06732C9.55262 1.19916 9.74091 2.0003 9.74091 2.00962C9.74091 2.02566 9.60757 2.01482 9.52642 1.99218L9.52643 1.99218ZM9.52143 1.82781C9.51693 1.81337 9.48044 1.66244 9.4405 1.4924C9.40056 1.32237 9.3662 1.18149 9.36414 1.17934C9.35268 1.16737 9.24199 1.22309 9.12809 1.29816C9.05647 1.34535 8.90135 1.4403 8.78338 1.50913C8.66541 1.57796 8.56889 1.63986 8.56889 1.64668C8.56889 1.65356 8.65162 1.67717 8.75274 1.6993C9.01283 1.75622 9.48419 1.85213 9.50893 1.85317C9.52293 1.8538 9.52701 1.84538 9.52143 1.82779L9.52143 1.82781Z" fill="#00FFFF" fill-opacity="0.38"/>
<path d="M10.3658 4.53083C10.1593 4.49269 9.94531 4.3808 9.82762 4.24936C9.71321 4.12158 9.68742 4.05509 9.68812 3.88979C9.68869 3.76586 9.69342 3.74061 9.73007 3.66976C9.8834 3.37311 10.2415 3.17985 10.6679 3.16367C10.8539 3.15663 10.9643 3.17493 11.1471 3.24314C11.4408 3.35276 11.6392 3.57631 11.6403 3.79881C11.6408 3.91487 11.6176 3.98985 11.5454 4.10562C11.495 4.18626 11.4599 4.2226 11.3571 4.30014C11.2501 4.38085 11.2063 4.40443 11.0718 4.45378C10.9844 4.48585 10.8633 4.52038 10.8026 4.53051C10.6698 4.55271 10.485 4.55284 10.3658 4.53084L10.3658 4.53083ZM10.8355 4.41444C11.1517 4.35174 11.4094 4.13865 11.4571 3.90058C11.5126 3.62348 11.2663 3.3598 10.8803 3.28325C10.7603 3.25945 10.6423 3.26112 10.501 3.28868C10.2404 3.33942 10.0472 3.45387 9.9391 3.62149C9.78788 3.85597 9.83154 4.08314 10.0615 4.25815C10.1649 4.33689 10.2756 4.38659 10.4103 4.41478C10.5121 4.43608 10.7273 4.43592 10.8355 4.41444V4.41444Z" fill="#FF0000" fill-opacity="0.38"/>
<path d="M5.9644 3.32962C5.90542 3.31345 5.73306 3.27434 5.58138 3.24269C5.23527 3.17048 5.18833 3.1595 5.05511 3.11971L4.94696 3.08739L4.9678 3.05112C4.97926 3.03117 5.06561 2.89148 5.1597 2.74069C5.25378 2.58991 5.35522 2.42191 5.38513 2.36737C5.44644 2.25557 5.48916 2.20405 5.52059 2.20405C5.53236 2.20405 5.76801 2.25318 6.04428 2.31322C6.32054 2.37326 6.57071 2.42725 6.6002 2.43319C6.67214 2.44768 6.67508 2.47545 6.61508 2.57388C6.58849 2.61752 6.4846 2.79231 6.38422 2.96235C6.1443 3.36871 6.15552 3.35261 6.10994 3.35609C6.08887 3.35762 6.02339 3.34579 5.96439 3.32963L5.9644 3.32962ZM6.27293 2.89234C6.37702 2.71589 6.46222 2.55986 6.46225 2.5456C6.46231 2.51723 6.48663 2.52415 6.10228 2.44312C5.99274 2.42002 5.83596 2.38544 5.75388 2.36627C5.57171 2.32373 5.55786 2.32742 5.49397 2.4355C5.46871 2.47823 5.38763 2.61031 5.31378 2.72901C5.23993 2.84772 5.17222 2.96151 5.16331 2.9819L5.14713 3.01895L5.25701 3.04879C5.31745 3.06521 5.46686 3.0995 5.58905 3.125C5.71123 3.15049 5.84911 3.182 5.89545 3.19504C5.94179 3.20806 6.00311 3.21745 6.03169 3.21593L6.08365 3.2131L6.27293 2.89234Z" fill="#FF6600" fill-opacity="0.38"/>
<path d="M7.37627 5.80597C7.25517 5.58746 7.21477 5.51728 7.14796 5.40931C7.10528 5.34034 7.06227 5.2839 7.05241 5.2839C7.02226 5.2839 6.85816 5.33774 6.55147 5.44823C6.39055 5.50621 6.25331 5.54938 6.24649 5.54418C6.23969 5.53898 6.22359 5.51556 6.21075 5.49214C6.1889 5.4523 6.18937 5.44764 6.21805 5.41991C6.23489 5.40361 6.26399 5.38666 6.28273 5.38226C6.34466 5.3677 6.92909 5.15306 6.95644 5.13483C6.97118 5.125 6.98325 5.10929 6.98325 5.09992C6.98325 5.09053 6.91723 4.96491 6.83655 4.82072C6.67121 4.52525 6.67193 4.5333 6.80754 4.49811L6.87385 4.48091L6.94161 4.5995C6.97888 4.66473 7.04243 4.78279 7.08282 4.86187C7.12321 4.94095 7.16606 5.01314 7.17808 5.02228C7.20899 5.04583 7.24163 5.04286 7.31811 5.00958C7.46725 4.94466 7.98336 4.76091 8.0016 4.76625C8.01236 4.76938 8.03376 4.78975 8.04913 4.81148C8.09412 4.87508 8.06938 4.89401 7.82916 4.97972C7.36388 5.14573 7.30466 5.16997 7.29534 5.19824C7.28914 5.217 7.31558 5.27265 7.38165 5.38C7.48933 5.55497 7.57287 5.70668 7.58647 5.75195C7.59497 5.78005 7.58837 5.78498 7.50585 5.8132C7.45646 5.83008 7.41183 5.84389 7.40668 5.84389C7.40158 5.84389 7.38785 5.82683 7.37629 5.80598L7.37627 5.80597Z" fill="#FF00FF" fill-opacity="0.38"/>
<path d="M5.97971 3.32846C5.94601 3.31898 5.75297 3.27502 5.55074 3.23074C5.23655 3.16197 4.98173 3.09868 4.96357 3.08491C4.95847 3.08093 5.34978 2.43342 5.43947 2.29737C5.48914 2.22202 5.48984 2.22154 5.55074 2.22379C5.58444 2.22509 5.79816 2.26594 6.02567 2.31471C6.68626 2.45631 6.64616 2.44571 6.64616 2.47868C6.64616 2.50316 6.28609 3.12702 6.17679 3.29191C6.14408 3.34126 6.13464 3.34723 6.09052 3.34651C6.06328 3.34608 6.0134 3.33797 5.97971 3.32848V3.32846ZM6.16353 3.09358C6.38838 2.709 6.46327 2.5694 6.45916 2.54259C6.45486 2.51489 6.43702 2.50932 6.14824 2.44617C5.97971 2.40931 5.78804 2.3682 5.72229 2.35483C5.53969 2.31765 5.5775 2.2811 5.2649 2.79703C5.19753 2.90823 5.14604 3.00643 5.15049 3.01525C5.15499 3.02408 5.23647 3.0496 5.33168 3.07197C5.79104 3.17986 5.96958 3.21739 6.0273 3.21816L6.09021 3.219L6.16353 3.09358Z" fill="#FF00FF" fill-opacity="0.38"/>
<path d="M9.52642 1.98728C9.4885 1.97798 9.28512 1.93613 9.07447 1.89424C8.6086 1.8016 8.50914 1.78016 8.36487 1.74132L8.25278 1.71113L8.29593 1.67653C8.31967 1.6575 8.3839 1.615 8.43866 1.58207C8.49343 1.54917 8.70716 1.4195 8.9136 1.29395C9.43985 0.973896 9.46493 0.959971 9.48053 0.979189C9.48773 0.987914 9.51109 1.06634 9.53259 1.15337C9.60084 1.42942 9.72559 1.96865 9.72559 1.98754C9.72559 2.0111 9.6232 2.01098 9.52642 1.98731L9.52642 1.98728ZM9.52642 1.83567C9.52642 1.80983 9.37429 1.18602 9.36655 1.18013C9.36305 1.17745 9.34541 1.17882 9.32735 1.18319C9.28313 1.19387 8.5689 1.63035 8.5689 1.64669C8.5689 1.66347 8.63167 1.679 9.08213 1.77368C9.48632 1.85864 9.52643 1.86423 9.52643 1.83562L9.52642 1.83567Z" fill="#00FF00" fill-opacity="0.38"/>
<path d="M7.38233 5.80013C7.37163 5.78249 7.31813 5.6893 7.26344 5.59306C7.12694 5.35281 7.07754 5.2839 7.04179 5.2839C7.02579 5.2839 6.91128 5.31869 6.7873 5.3612C6.66333 5.40371 6.49429 5.46158 6.41165 5.4898C6.32901 5.51801 6.2554 5.53828 6.24807 5.53483C6.24067 5.53131 6.22666 5.50993 6.2168 5.48716C6.20126 5.45131 6.20264 5.44254 6.22718 5.42165C6.24275 5.40839 6.28652 5.38746 6.32444 5.37514C6.36236 5.36281 6.52284 5.30476 6.68107 5.24614C6.91206 5.16056 6.97054 5.13414 6.9778 5.1121C6.984 5.09305 6.94649 5.01027 6.85481 4.84127C6.7822 4.70741 6.72277 4.58205 6.72277 4.56271C6.72277 4.53167 6.73107 4.52514 6.79304 4.50709C6.87785 4.48243 6.86427 4.46999 6.97152 4.6707C7.13649 4.97947 7.17173 5.03275 7.21347 5.03649C7.23706 5.03871 7.33931 5.00667 7.48128 4.95286C7.6076 4.90499 7.77607 4.84403 7.85567 4.81742L8.00038 4.76904L8.02768 4.79607C8.06174 4.82977 8.06319 4.86779 8.03128 4.88874C8.01783 4.89757 7.8472 4.96512 7.6521 5.03891L7.29735 5.17307L7.29885 5.21439C7.29969 5.23855 7.34348 5.32819 7.40427 5.43022C7.53397 5.64795 7.58466 5.74943 7.57413 5.77032C7.56613 5.78614 7.45182 5.83144 7.41858 5.83197C7.40938 5.83211 7.39314 5.81779 7.38243 5.80015L7.38233 5.80013Z" fill="#00FFFF" fill-opacity="0.38"/>
<path opacity="0.9902" d="M18.7123 2.75214H19.2635V4.82493C19.0099 5.04748 18.7097 5.21827 18.363 5.33731C18.0162 5.45635 17.6513 5.51586 17.2683 5.51586C16.7249 5.51586 16.2358 5.39683 15.8011 5.15875C15.3663 4.92068 15.0248 4.59203 14.7763 4.17282C14.5279 3.74843 14.4037 3.27487 14.4037 2.75214C14.4037 2.22941 14.5279 1.75844 14.7763 1.33922C15.0248 0.914831 15.3663 0.583598 15.8011 0.345524C16.2358 0.10745 16.7275 -0.0115867 17.2761 -0.0115867C17.6901 -0.0115867 18.0705 0.055695 18.4173 0.190259C18.7641 0.319646 19.0565 0.513728 19.2946 0.772504L18.9374 1.13738C18.5079 0.712985 17.9619 0.500789 17.2994 0.500789C16.8595 0.500789 16.461 0.599124 16.1038 0.795793C15.7519 0.987288 15.475 1.25641 15.2732 1.60317C15.0713 1.94476 14.9704 2.32775 14.9704 2.75214C14.9704 3.17653 15.0713 3.55952 15.2732 3.9011C15.475 4.24269 15.7519 4.51181 16.1038 4.70848C16.4558 4.90515 16.8517 5.00349 17.2916 5.00349C17.8506 5.00349 18.3241 4.86375 18.7123 4.58427V2.75214ZM22.2014 1.35475C22.7345 1.35475 23.1434 1.48931 23.428 1.75844C23.7127 2.02239 23.855 2.41573 23.855 2.93846V5.46928H23.3271V4.8327C23.2029 5.04489 23.0191 5.21051 22.7759 5.32955C22.5378 5.44858 22.2532 5.5081 21.9219 5.5081C21.4665 5.5081 21.1042 5.39941 20.8351 5.18204C20.5659 4.96467 20.4314 4.67743 20.4314 4.32032C20.4314 3.97356 20.5556 3.69408 20.804 3.48189C21.0576 3.26969 21.4587 3.16359 22.0073 3.16359H23.3038V2.91517C23.3038 2.56323 23.2055 2.29669 23.0088 2.11555C22.8121 1.92923 22.5249 1.83607 22.1471 1.83607C21.8883 1.83607 21.6399 1.88006 21.4018 1.96805C21.1637 2.05086 20.9593 2.16731 20.7885 2.3174L20.5401 1.90594C20.7471 1.72997 20.9955 1.59541 21.2853 1.50225C21.5752 1.40392 21.8805 1.35475 22.2014 1.35475ZM22.0073 5.07336C22.3179 5.07336 22.5844 5.00349 22.8069 4.86375C23.0295 4.71883 23.1951 4.51181 23.3038 4.24269V3.57505H22.0229C21.3242 3.57505 20.9748 3.81829 20.9748 4.30479C20.9748 4.54287 21.0654 4.73177 21.2465 4.87151C21.4277 5.00608 21.6813 5.07336 22.0073 5.07336ZM30.4448 1.35475C30.9572 1.35475 31.3583 1.50225 31.6481 1.79726C31.9431 2.09226 32.0906 2.527 32.0906 3.10149V5.46928H31.5394V3.15583C31.5394 2.73144 31.4359 2.40797 31.2289 2.18542C31.027 1.96287 30.7398 1.8516 30.3672 1.8516C29.9428 1.8516 29.609 1.98357 29.3657 2.24753C29.1225 2.5063 29.0008 2.866 29.0008 3.32662V5.46928H28.4496V3.15583C28.4496 2.73144 28.3461 2.40797 28.1391 2.18542C27.9373 1.96287 27.6474 1.8516 27.2696 1.8516C26.8504 1.8516 26.5166 1.98357 26.2682 2.24753C26.0249 2.5063 25.9033 2.866 25.9033 3.32662V5.46928H25.3521V1.3858H25.88V2.13108C26.0249 1.88265 26.2268 1.69116 26.4855 1.55659C26.7443 1.42203 27.0419 1.35475 27.3783 1.35475C27.7199 1.35475 28.0149 1.42721 28.2633 1.57212C28.5169 1.71704 28.7058 1.93182 28.83 2.21647C28.9801 1.94735 29.1949 1.73774 29.4744 1.58765C29.759 1.43238 30.0825 1.35475 30.4448 1.35475ZM37.1561 3.59834H33.7403C33.7714 4.02273 33.9344 4.3669 34.2294 4.63085C34.5244 4.88963 34.897 5.01901 35.3473 5.01901C35.6009 5.01901 35.8338 4.97502 36.046 4.88704C36.2582 4.79388 36.4419 4.65932 36.5972 4.48335L36.9077 4.84046C36.7266 5.05783 36.4989 5.22345 36.2246 5.33731C35.9554 5.45117 35.6578 5.5081 35.3318 5.5081C34.9126 5.5081 34.5399 5.42012 34.2139 5.24415C33.893 5.06301 33.642 4.81458 33.4608 4.49887C33.2797 4.18317 33.1891 3.82606 33.1891 3.42754C33.1891 3.02903 33.2745 2.67192 33.4453 2.35621C33.6213 2.04051 33.8593 1.79467 34.1595 1.6187C34.4649 1.44273 34.8065 1.35475 35.1843 1.35475C35.5621 1.35475 35.9011 1.44273 36.2013 1.6187C36.5014 1.79467 36.7369 2.04051 36.9077 2.35621C37.0785 2.66674 37.1639 3.02385 37.1639 3.42754L37.1561 3.59834ZM35.1843 1.82831C34.7909 1.82831 34.4597 1.95511 34.1906 2.20871C33.9266 2.45713 33.7765 2.78319 33.7403 3.18688H36.636C36.5998 2.78319 36.4471 2.45713 36.178 2.20871C35.914 1.95511 35.5828 1.82831 35.1843 1.82831ZM41.9324 5.51586C41.5287 5.51586 41.1405 5.45117 40.7679 5.32178C40.4004 5.19239 40.1158 5.0216 39.9139 4.80941L40.1391 4.3669C40.3357 4.56357 40.5971 4.72401 40.9232 4.84822C41.2492 4.96726 41.5856 5.02678 41.9324 5.02678C42.4189 5.02678 42.7837 4.93879 43.027 4.76283C43.2702 4.58168 43.3919 4.34878 43.3919 4.06413C43.3919 3.84676 43.3246 3.67338 43.19 3.54399C43.0606 3.4146 42.9002 3.31627 42.7087 3.24899C42.5172 3.17653 42.2507 3.0989 41.9091 3.01609C41.5002 2.91258 41.1742 2.81424 40.9309 2.72109C40.6877 2.62275 40.4781 2.47525 40.3021 2.27858C40.1313 2.08191 40.0459 1.81537 40.0459 1.47896C40.0459 1.20466 40.1184 0.956235 40.2633 0.733688C40.4082 0.505965 40.6307 0.324822 40.9309 0.190259C41.2311 0.055695 41.6037 -0.0115867 42.0488 -0.0115867C42.3594 -0.0115867 42.6621 0.0324052 42.9571 0.120389C43.2573 0.203197 43.5161 0.319646 43.7335 0.469736L43.5394 0.927769C43.3117 0.777679 43.0684 0.666406 42.8096 0.593949C42.5509 0.516316 42.2972 0.4775 42.0488 0.4775C41.5727 0.4775 41.213 0.570659 40.9697 0.756977C40.7317 0.93812 40.6126 1.17361 40.6126 1.46344C40.6126 1.68081 40.6773 1.85677 40.8067 1.99134C40.9413 2.12073 41.1069 2.22165 41.3036 2.29411C41.5054 2.36139 41.7745 2.43643 42.1109 2.51924C42.5094 2.61757 42.8303 2.71591 43.0736 2.81424C43.322 2.9074 43.5316 3.05232 43.7024 3.24899C43.8732 3.44048 43.9586 3.70185 43.9586 4.03308C43.9586 4.30738 43.8835 4.55839 43.7335 4.78612C43.5885 5.00866 43.3634 5.18722 43.0581 5.32178C42.7527 5.45117 42.3775 5.51586 41.9324 5.51586ZM47.1977 1.35475C47.5807 1.35475 47.9274 1.44273 48.238 1.6187C48.5485 1.78949 48.7918 2.03274 48.9677 2.34845C49.1437 2.66415 49.2317 3.02385 49.2317 3.42754C49.2317 3.83641 49.1437 4.19869 48.9677 4.5144C48.7918 4.83011 48.5485 5.07594 48.238 5.25191C47.9326 5.4227 47.5859 5.5081 47.1977 5.5081C46.8665 5.5081 46.5663 5.44082 46.2972 5.30626C46.0332 5.16652 45.8158 4.96467 45.645 4.70072V6.97536H45.0938V1.3858H45.6217V2.19318C45.7874 1.92406 46.0047 1.71704 46.2739 1.57212C46.5482 1.42721 46.8561 1.35475 47.1977 1.35475ZM47.1589 5.01901C47.4435 5.01901 47.7023 4.95432 47.9352 4.82493C48.1681 4.69037 48.3492 4.50146 48.4786 4.25821C48.6132 4.01496 48.6805 3.73807 48.6805 3.42754C48.6805 3.11701 48.6132 2.84271 48.4786 2.60464C48.3492 2.36139 48.1681 2.17248 47.9352 2.03792C47.7023 1.90335 47.4435 1.83607 47.1589 1.83607C46.869 1.83607 46.6077 1.90335 46.3748 2.03792C46.1471 2.17248 45.9659 2.36139 45.8314 2.60464C45.702 2.84271 45.6373 3.11701 45.6373 3.42754C45.6373 3.73807 45.702 4.01496 45.8314 4.25821C45.9659 4.50146 46.1471 4.69037 46.3748 4.82493C46.6077 4.95432 46.869 5.01901 47.1589 5.01901ZM51.761 1.35475C52.2941 1.35475 52.7029 1.48931 52.9876 1.75844C53.2722 2.02239 53.4146 2.41573 53.4146 2.93846V5.46928H52.8867V4.8327C52.7624 5.04489 52.5787 5.21051 52.3355 5.32955C52.0974 5.44858 51.8127 5.5081 51.4815 5.5081C51.0261 5.5081 50.6638 5.39941 50.3946 5.18204C50.1255 4.96467 49.991 4.67743 49.991 4.32032C49.991 3.97356 50.1152 3.69408 50.3636 3.48189C50.6172 3.26969 51.0183 3.16359 51.5669 3.16359H52.8634V2.91517C52.8634 2.56323 52.765 2.29669 52.5684 2.11555C52.3717 1.92923 52.0845 1.83607 51.7066 1.83607C51.4479 1.83607 51.1994 1.88006 50.9614 1.96805C50.7233 2.05086 50.5189 2.16731 50.3481 2.3174L50.0996 1.90594C50.3067 1.72997 50.5551 1.59541 50.8449 1.50225C51.1347 1.40392 51.4401 1.35475 51.761 1.35475ZM51.5669 5.07336C51.8774 5.07336 52.144 5.00349 52.3665 4.86375C52.5891 4.71883 52.7547 4.51181 52.8634 4.24269V3.57505H51.5824C50.8837 3.57505 50.5344 3.81829 50.5344 4.30479C50.5344 4.54287 50.625 4.73177 50.8061 4.87151C50.9872 5.00608 51.2408 5.07336 51.5669 5.07336ZM55.4396 2.18542C55.5689 1.91112 55.7604 1.7041 56.014 1.56436C56.2728 1.42462 56.5911 1.35475 56.9689 1.35475V1.89042L56.8369 1.88265C56.4074 1.88265 56.071 2.01463 55.8277 2.27858C55.5845 2.54253 55.4628 2.91258 55.4628 3.38873V5.46928H54.9117V1.3858H55.4396V2.18542ZM58.4948 2.18542C58.6242 1.91112 58.8157 1.7041 59.0693 1.56436C59.3281 1.42462 59.6464 1.35475 60.0242 1.35475V1.89042L59.8922 1.88265C59.4627 1.88265 59.1262 2.01463 58.883 2.27858C58.6397 2.54253 58.5181 2.91258 58.5181 3.38873V5.46928H57.9669V1.3858H58.4948V2.18542ZM61.0222 1.3858H61.5734V5.46928H61.0222V1.3858ZM61.3017 0.493026C61.1878 0.493026 61.0921 0.45421 61.0144 0.376577C60.9368 0.298944 60.898 0.205785 60.898 0.0970991C60.898 -0.00641114 60.9368 -0.0969827 61.0144 -0.174616C61.0921 -0.252248 61.1878 -0.291065 61.3017 -0.291065C61.4155 -0.291065 61.5113 -0.252248 61.5889 -0.174616C61.6666 -0.102158 61.7054 -0.0141746 61.7054 0.0893359C61.7054 0.203197 61.6666 0.298944 61.5889 0.376577C61.5113 0.45421 61.4155 0.493026 61.3017 0.493026ZM65.1876 1.35475C65.7 1.35475 66.1063 1.50484 66.4065 1.80502C66.7118 2.10002 66.8645 2.53218 66.8645 3.10149V5.46928H66.3133V3.15583C66.3133 2.73144 66.2072 2.40797 65.995 2.18542C65.7828 1.96287 65.48 1.8516 65.0867 1.8516C64.6468 1.8516 64.2974 1.98357 64.0387 2.24753C63.7851 2.5063 63.6583 2.866 63.6583 3.32662V5.46928H63.1071V1.3858H63.635V2.13884C63.7851 1.89042 63.9921 1.69892 64.256 1.56436C64.5252 1.42462 64.8357 1.35475 65.1876 1.35475ZM72.1568 1.3858V4.97243C72.1568 5.66595 71.986 6.17833 71.6444 6.50956C71.308 6.84597 70.7982 7.01418 70.1151 7.01418C69.7372 7.01418 69.3775 6.95724 69.036 6.84338C68.6996 6.7347 68.4253 6.58202 68.2131 6.38535L68.4925 5.96613C68.6892 6.1421 68.9273 6.27925 69.2068 6.37759C69.4914 6.47592 69.789 6.52509 70.0995 6.52509C70.6171 6.52509 70.9975 6.40346 71.2407 6.16022C71.484 5.92214 71.6056 5.5495 71.6056 5.0423V4.52216C71.4348 4.78094 71.2097 4.97761 70.9302 5.11217C70.6559 5.24674 70.3505 5.31402 70.0141 5.31402C69.6311 5.31402 69.2818 5.23121 68.9661 5.06559C68.6556 4.8948 68.4097 4.65932 68.2286 4.35914C68.0526 4.05378 67.9646 3.70961 67.9646 3.32662C67.9646 2.94363 68.0526 2.60205 68.2286 2.30187C68.4097 2.00169 68.6556 1.76879 68.9661 1.60317C69.2766 1.43756 69.626 1.35475 70.0141 1.35475C70.3609 1.35475 70.674 1.42462 70.9535 1.56436C71.233 1.7041 71.4581 1.90594 71.6289 2.16989V1.3858H72.1568ZM70.0685 4.82493C70.3635 4.82493 70.63 4.76283 70.8681 4.63861C71.1062 4.50923 71.2899 4.33067 71.4193 4.10295C71.5539 3.87523 71.6211 3.61645 71.6211 3.32662C71.6211 3.03679 71.5539 2.7806 71.4193 2.55806C71.2899 2.33033 71.1062 2.15437 70.8681 2.03015C70.6352 1.90077 70.3687 1.83607 70.0685 1.83607C69.7735 1.83607 69.5069 1.89818 69.2689 2.02239C69.036 2.1466 68.8522 2.32257 68.7177 2.55029C68.5883 2.77802 68.5236 3.03679 68.5236 3.32662C68.5236 3.61645 68.5883 3.87523 68.7177 4.10295C68.8522 4.33067 69.036 4.50923 69.2689 4.63861C69.5069 4.76283 69.7735 4.82493 70.0685 4.82493Z" fill="white"/>
</g>
<defs>
<filter id="filter0_d" x="0" y="-0.291061" width="76.1568" height="15.3052" filterUnits="userSpaceOnUse" color-interpolation-filters="sRGB">
<feFlood flood-opacity="0" result="BackgroundImageFix"/>
<feColorMatrix in="SourceAlpha" type="matrix" values="0 0 0 0 0 0 0 0 0 0 0 0 0 0 0 0 0 0 127 0"/>
<feOffset dy="4"/>
<feGaussianBlur stdDeviation="2"/>
<feColorMatrix type="matrix" values="0 0 0 0 0 0 0 0 0 0 0 0 0 0 0 0 0 0 0.25 0"/>
<feBlend mode="normal" in2="BackgroundImageFix" result="effect1_dropShadow"/>
<feBlend mode="normal" in="SourceGraphic" in2="effect1_dropShadow" result="shape"/>
</filter>
</defs>
</svg>
