<svg width="298" height="53" viewBox="0 0 298 53" fill="none" xmlns="http://www.w3.org/2000/svg">
<g filter="url(#filter0_i)">
<g filter="url(#filter1_i)">
<path d="M16.8716 31.3748C16.641 32.3928 16.0151 33.4212 15.5808 34.3625C14.8304 35.9885 14.115 37.6379 13.396 39.2797C12.9894 40.2078 12.131 41.4565 12.2578 42.5163C12.3704 43.4564 13.1069 44.2526 13.6046 45.006C14.0499 45.68 14.4767 46.6161 15.0958 47.1268C15.8908 47.7825 17.2291 47.978 18.1778 48.3154C20.4288 49.1161 22.6912 49.8823 24.9463 50.6701L27.6181 51.6038C28.5622 51.9337 29.4278 52.2724 30.3493 51.661C31.3166 51.0184 31.6619 49.5567 32.0598 48.4924C32.9053 46.2307 33.8858 44.0222 34.7548 41.7701C35.2012 40.6129 35.5653 39.0192 36.7022 38.4078C37.9001 37.7636 39.2641 38.5247 40.4426 38.8886C42.7809 39.6105 45.1266 40.3299 47.4487 41.1069C48.5166 41.4642 49.776 42.1044 50.8923 41.6739C52.4163 41.0864 52.8392 38.4039 53.3739 36.9774C54.2795 34.5612 55.2069 32.1391 56.0394 29.6949C56.3448 28.7983 56.9371 27.7916 56.995 26.8318C57.037 26.1437 56.8022 25.3338 56.6962 24.6533C56.5406 23.6551 56.6147 22.2082 55.9196 21.4274C55.1543 20.5677 53.4241 20.4203 52.3766 20.1422C49.7196 19.4369 46.8685 18.8717 44.3019 17.8688C45.1904 16.1197 45.7819 14.1524 46.524 12.3291C46.8862 11.4394 47.5266 10.3744 47.6162 9.40371C47.693 8.57234 47.3132 7.60377 47.1673 6.78951C46.9961 5.8347 46.9448 4.23587 46.2009 3.57334C45.5988 3.03708 44.5731 2.97206 43.8269 2.77647C41.9341 2.28046 40.0306 1.7976 38.1271 1.348C36.7184 1.01525 35.3141 0.653968 33.9116 0.292943C33.0256 0.064908 32.1653 -0.212943 31.2992 0.252586C30.3567 0.759505 30.0174 1.98034 29.5996 2.93018C28.6764 5.02952 27.7541 7.13182 26.802 9.21673C26.2889 10.3401 25.9335 11.584 24.7088 12.0364C23.7257 12.3995 22.5781 11.8838 21.6214 11.6083C19.5094 10.9999 17.3869 10.4302 15.2686 9.84633C13.9865 9.49292 12.6478 8.85439 11.471 9.8331C10.9059 10.303 10.6398 11.1109 10.3259 11.7688L8.54478 15.5034L5.99174 20.8563C5.63306 21.6083 5.01643 22.4828 5.00028 23.346C4.9817 24.3347 5.90015 25.3519 6.38158 26.147C6.80236 26.8418 7.23683 27.886 7.85251 28.4024C8.54043 28.9794 9.68997 29.118 10.5187 29.3852C11.7634 29.7863 13.0158 30.1627 14.2592 30.5678C15.1053 30.8434 15.995 31.2397 16.8716 31.3754L16.8716 31.3748ZM37.949 4.29968L38.3764 6.60268L39.4926 12.8269C38.7597 12.9912 37.6065 12.4339 36.8802 12.2436C34.758 11.6874 32.3597 11.3063 30.3492 10.3995C30.6701 9.73711 31.6913 9.20026 32.2491 8.74534C33.5251 7.70481 34.8153 6.67824 36.1084 5.66114C36.6689 5.22025 37.2797 4.53234 37.9489 4.29968H37.949ZM32.3679 9.83932V9.90138L34.7428 10.5789L38.0677 11.4575L37.1177 6.22906C36.5353 6.37413 35.9798 7.01619 35.5146 7.39861C34.4886 8.24206 33.4268 9.04177 32.3679 9.83916V9.83932ZM10.6374 21.2295C10.8045 20.6218 11.1621 20.056 11.4225 19.4867C11.9757 18.2772 12.5441 17.0766 13.1164 15.8767C13.2872 15.5187 13.6462 14.3053 14.0343 14.2003C14.3355 14.1188 14.8527 14.3895 15.1498 14.4684C16.102 14.7213 17.0556 14.9883 17.9997 15.2724C18.7493 15.4979 19.5058 15.6977 20.2558 15.9208C20.4535 15.9793 20.9082 16.0163 21.0198 16.2198C21.1468 16.4514 20.8424 16.9178 20.7455 17.1215C20.3445 17.9644 19.9847 18.8282 19.5882 19.6735C19.1725 20.5601 18.7751 21.458 18.3692 22.35C18.2442 22.6244 18.1215 23.1824 17.8577 23.3416C17.5165 23.5476 16.4135 23.0122 16.0403 22.9014C14.2795 22.3783 12.3101 22.0059 10.6374 21.2296L10.6374 21.2295ZM11.9436 20.6072C13.2105 21.1787 14.6616 21.4252 15.981 21.8505C16.2764 21.9456 17.0881 22.3455 17.3681 22.1591C17.5668 22.0269 17.6767 21.6294 17.7767 21.4163C18.0853 20.7584 18.3553 20.081 18.6675 19.4245C18.9598 18.81 19.2222 18.1785 19.5017 17.5572C19.5793 17.3848 19.8242 17.0407 19.7136 16.8455C19.6223 16.6843 19.2856 16.6507 19.1278 16.6073L17.406 16.1334C16.7305 15.9472 16.0584 15.7501 15.3873 15.5478C15.15 15.4761 14.7549 15.2713 14.5092 15.3602C14.1606 15.4864 13.9288 16.3016 13.7795 16.6241C13.1763 17.9258 12.4147 19.2508 11.9437 20.6077L11.9436 20.6072ZM44.5394 21.7458C48.0983 21.2995 51.8741 24.4685 50.624 28.4503C49.845 30.9312 47.5203 32.431 45.1331 32.7272C41.3393 33.198 37.7975 29.645 39.3415 25.6494C40.2047 23.4153 42.3128 22.025 44.5394 21.7458V21.7458ZM44.6581 22.6881C43.496 22.85 42.4003 23.2863 41.5321 24.1384C41.1345 24.5286 40.7838 25.0739 40.5485 25.5871C38.9444 29.0854 42.0241 32.1873 45.3706 31.7312C47.5332 31.4363 49.4793 29.6633 49.6947 27.3299C49.9553 24.507 47.1839 22.3361 44.6581 22.6881ZM22.2151 32.1226C22.7796 33.1365 23.1618 34.2893 23.6219 35.3593C23.7346 35.6213 23.9289 36.4123 24.2151 36.5007C24.4853 36.5841 25.0043 36.1782 25.2432 36.0633L27.915 34.7799C28.2204 34.633 28.913 34.0854 29.1739 34.4972C29.2888 34.6787 29.559 35.1137 29.4508 35.3351C29.3066 35.6299 28.7181 35.7728 28.4493 35.9059C27.5612 36.3456 26.6601 36.7598 25.7776 37.2114C25.5278 37.3392 24.8906 37.4986 24.793 37.8001C24.6925 38.1108 25.127 38.8061 25.2487 39.094C25.6893 40.1368 26.418 41.3332 26.6088 42.4551L25.3619 43.0153L23.9118 39.6541L23.327 38.4969L21.9777 39.0479L18.4747 40.7124C18.3401 40.4646 17.9876 39.8938 18.1256 39.606C18.2596 39.3267 18.8662 39.1504 19.1278 39.0318C19.9881 38.6418 20.8244 38.1954 21.6808 37.7956C21.9484 37.6706 22.7394 37.4444 22.8289 37.1221C22.9031 36.8554 22.5445 36.29 22.4437 36.0441C22.1113 35.2328 21.7713 34.4218 21.4251 33.6166C21.3293 33.3936 21.0463 32.9584 21.1291 32.7073C21.2315 32.3965 21.9428 32.2009 22.2151 32.1227L22.2151 32.1226Z" fill="#2E2E3D"/>
<path d="M22.3255 48.2559C18.5759 47.063 15.225 45.8649 14.8789 45.5936C14.5329 45.3222 13.7334 44.2322 13.1024 43.1714L11.955 41.2424L14.3142 36.2936C15.6118 33.5717 16.6735 31.1696 16.6735 30.9557C16.6735 30.7418 14.6095 29.9324 12.0869 29.157C8.06515 27.9209 7.34624 27.5169 6.2501 25.8772C5.56254 24.8487 5 23.5845 5 23.0679C5 21.6904 10.7119 10.5672 11.6829 10.0538C12.2205 9.76946 14.5631 10.1474 18.355 11.1301C22.6932 12.2544 24.4255 12.5095 25.079 12.1205C25.5631 11.8322 27.0654 9.25199 28.4175 6.38657C30.3651 2.2591 31.1222 1.14183 32.062 1.00874C33.2696 0.83775 44.3299 3.22213 45.9514 4.0031C46.5398 4.28654 46.9655 5.36946 47.2074 7.19851C47.5261 9.60838 47.3595 10.4612 45.9154 13.8111C44.6791 16.679 44.4222 17.7531 44.9051 18.0351C45.2613 18.2431 47.6863 18.9113 50.294 19.5201C55.999 20.852 57 21.6414 57 24.809C57 27.5005 53.1374 38.2244 51.6136 39.7635C50.6442 40.7426 50.5875 40.7352 44.495 38.8407C40.8418 37.7047 37.8592 37.0482 37.1332 37.2203C36.179 37.4466 35.448 38.5773 33.7818 42.4044C32.6097 45.0965 31.4882 47.807 31.2894 48.4277C30.6061 50.5622 29.5082 50.5412 22.3255 48.2559V48.2559ZM26.4682 41.5669C26.6367 41.3094 26.3821 40.172 25.9024 39.0394C25.4229 37.9069 25.12 36.9265 25.2295 36.8608C25.339 36.7953 26.324 36.357 27.4184 35.8871C28.5127 35.4172 29.4082 34.6907 29.4082 34.2726C29.4082 33.2725 28.731 33.3138 26.2018 34.4684L24.1079 35.4242L23.0445 33.1531C22.1708 31.2869 21.8463 30.9877 21.2247 31.475C20.5701 31.9884 20.57 32.2982 21.224 33.7769C22.2774 36.159 22.2387 36.2579 19.8572 37.2726C18.4919 37.8543 17.7348 38.5073 17.7348 39.1033C17.7348 40.2606 17.8364 40.257 20.4271 39.0082C22.9051 37.8138 23.2869 37.9466 24.1045 40.2874C24.6875 41.9566 25.8143 42.5664 26.4682 41.5668L26.4682 41.5669ZM47.7545 31.5598C50.3052 30.4653 51.9973 27.7137 51.4355 25.5741C50.6138 22.4451 46.756 20.4558 43.4867 21.4752C38.0649 23.1658 37.3373 29.7309 42.3436 31.7895C44.5303 32.6887 45.189 32.6607 47.7545 31.5597V31.5598ZM19.4798 19.8383C20.2711 18.1221 20.9185 16.4795 20.9184 16.188C20.9183 15.6689 13.6612 13.6316 13.2377 14.0317C13.1194 14.1435 12.2984 15.76 11.4133 17.624L9.80388 21.013L10.9836 21.4652C13.5213 22.4378 16.9658 23.329 17.49 23.1484C17.7931 23.044 18.6886 21.5545 19.4798 19.8383ZM39.8378 12.0807C39.698 11.5981 39.2941 9.66718 38.9401 7.78965C38.4979 5.44431 38.0895 4.45102 37.6352 4.61576C36.6424 4.97577 29.9388 10.1005 29.9388 10.4995C29.9388 10.9163 37.123 12.8644 38.8623 12.9192C39.7855 12.9483 40.0286 12.7394 39.8378 12.0807V12.0807Z" fill="#F9F9F9" fill-opacity="0.38"/>
<path d="M38.5741 12.834C38.2661 12.7485 36.5931 12.4082 34.8566 12.0778C33.12 11.7475 31.3169 11.3646 30.8496 11.2272L30 10.9773L30.3403 10.7073C30.5275 10.5588 31.0218 10.2448 31.4387 10.0095C31.8556 9.77419 33.3133 8.90095 34.6782 8.06888C38.2077 5.91717 38.1623 5.94292 38.2742 6.02776C38.3281 6.06878 38.4425 6.37832 38.5278 6.7152C38.7483 7.58743 40 12.8878 40 12.9494C40 13.0556 39.1136 12.9839 38.5741 12.8341L38.5741 12.834ZM38.5409 11.7466C38.511 11.6511 38.2684 10.6525 38.0029 9.52754C37.7374 8.40259 37.5089 7.47053 37.4952 7.45629C37.419 7.37714 36.6832 7.74573 35.926 8.2424C35.4499 8.55462 34.4186 9.1828 33.6343 9.63821C32.8501 10.0936 32.2084 10.5031 32.2084 10.5482C32.2084 10.5938 32.7584 10.75 33.4306 10.8963C35.1597 11.273 38.2933 11.9075 38.4578 11.9144C38.5509 11.9185 38.578 11.8628 38.5409 11.7464L38.5409 11.7466Z" fill="#00FFFF" fill-opacity="0.38"/>
<path d="M43.4716 32.8696C42.4135 32.5667 41.3175 31.678 40.7146 30.634C40.1286 29.6192 39.9965 29.0911 40.0001 27.7782C40.003 26.794 40.0272 26.5934 40.215 26.0307C41.0004 23.6746 42.8349 22.1397 45.019 22.0112C45.9717 21.9553 46.5373 22.1006 47.4735 22.6423C48.9782 23.513 49.9946 25.2885 49.9999 27.0556C50.0028 27.9774 49.884 28.5729 49.5139 29.4924C49.2561 30.1329 49.0759 30.4215 48.5494 31.0373C48.0013 31.6784 47.7769 31.8657 47.088 32.2577C46.6404 32.5124 46.0199 32.7866 45.7093 32.867C45.0286 33.0434 44.0823 33.0444 43.4715 32.8697L43.4716 32.8696ZM45.8777 31.9452C47.4971 31.4472 48.8175 29.7548 49.0619 27.864C49.3463 25.6631 48.0842 23.5689 46.107 22.9609C45.4922 22.7719 44.888 22.7852 44.1638 23.0041C42.8293 23.407 41.8395 24.316 41.2857 25.6474C40.5111 27.5097 40.7347 29.3139 41.9126 30.7039C42.4426 31.3293 43.0095 31.724 43.6994 31.9479C44.2208 32.1171 45.3233 32.1158 45.8777 31.9452V31.9452Z" fill="#FF0000" fill-opacity="0.38"/>
<path d="M15.9486 23.746C15.6038 23.5916 14.596 23.2182 13.7092 22.9161C11.6857 22.2267 11.4112 22.1219 10.6323 21.7419L10 21.4334L10.1219 21.0871C10.1889 20.8967 10.6937 19.563 11.2438 18.1234C11.7939 16.6839 12.387 15.08 12.5618 14.5593C12.9203 13.4919 13.1701 13 13.3538 13C13.4226 13 14.8004 13.469 16.4156 14.0423C18.0309 14.6155 19.4935 15.131 19.6659 15.1876C20.0865 15.326 20.1037 15.5911 19.7529 16.5309C19.5974 16.9475 18.9901 18.6162 18.4031 20.2396C17.0004 24.1192 17.066 23.9655 16.7995 23.9987C16.6763 24.0133 16.2935 23.9004 15.9486 23.7461L15.9486 23.746ZM17.7525 19.5713C18.3611 17.8866 18.8592 16.397 18.8594 16.2608C18.8597 15.99 19.0019 16.0561 16.7547 15.2824C16.1143 15.0619 15.1977 14.7318 14.7178 14.5488C13.6527 14.1427 13.5717 14.1779 13.1982 15.2097C13.0505 15.6177 12.5764 16.8786 12.1447 18.0119C11.7129 19.1452 11.317 20.2316 11.2649 20.4263L11.1703 20.78L11.8128 21.0649C12.1661 21.2216 13.0397 21.549 13.7541 21.7924C14.4684 22.0358 15.2746 22.3367 15.5455 22.4611C15.8164 22.5854 16.1749 22.6751 16.3421 22.6606L16.6458 22.6336L17.7525 19.5713Z" fill="#FF6600" fill-opacity="0.38"/>
<path d="M24.5693 39.7496C23.7931 38.3068 23.5342 37.8434 23.1059 37.1304C22.8323 36.675 22.5566 36.3023 22.4935 36.3023C22.3002 36.3023 21.2484 36.6578 19.2826 37.3874C18.2512 37.7703 17.3715 38.0553 17.3279 38.021C17.2843 37.9866 17.1811 37.832 17.0988 37.6773C16.9587 37.4143 16.9617 37.3835 17.1456 37.2004C17.2535 37.0928 17.44 36.9808 17.5601 36.9518C17.9571 36.8556 21.7031 35.4383 21.8783 35.318C21.9728 35.2531 22.0502 35.1493 22.0502 35.0875C22.0502 35.0254 21.627 34.196 21.1099 33.2438C20.0501 31.2928 20.0548 31.3459 20.9239 31.1136L21.349 31L21.7833 31.7831C22.0222 32.2138 22.4295 32.9934 22.6884 33.5156C22.9473 34.0378 23.222 34.5144 23.299 34.5748C23.4971 34.7303 23.7063 34.7107 24.1965 34.4909C25.1525 34.0622 28.4605 32.8489 28.5774 32.8841C28.6464 32.9048 28.7836 33.0394 28.8821 33.1828C29.1704 33.6028 29.0119 33.7278 27.4721 34.2937C24.4899 35.3899 24.1103 35.55 24.0506 35.7366C24.0109 35.8605 24.1803 36.228 24.6038 36.9369C25.294 38.0922 25.8294 39.094 25.9166 39.3929C25.9711 39.5785 25.9288 39.6111 25.3998 39.7973C25.0833 39.9088 24.7972 40 24.7642 40C24.7315 40 24.6435 39.8874 24.5694 39.7497L24.5693 39.7496Z" fill="#FF00FF" fill-opacity="0.38"/>
<path d="M16.0376 21.8549C15.8374 21.7789 14.6904 21.4268 13.4889 21.0721C11.6222 20.5211 10.1082 20.014 10.0003 19.9037C9.96999 19.8718 12.295 14.6842 12.8278 13.5942C13.1229 12.9905 13.1271 12.9867 13.4889 13.0047C13.6891 13.0151 14.9589 13.3423 16.3107 13.7331C20.2355 14.8675 19.9972 14.7826 19.9972 15.0468C19.9972 15.2429 17.8579 20.2411 17.2085 21.5621C17.0142 21.9575 16.9581 22.0053 16.696 21.9996C16.5341 21.9961 16.2378 21.9311 16.0376 21.8551V21.8549ZM17.1298 19.9732C18.4656 16.892 18.9106 15.7736 18.8862 15.5588C18.8606 15.3369 18.7546 15.2923 17.0389 14.7863C16.0376 14.491 14.8988 14.1617 14.5081 14.0545C13.4233 13.7567 13.6479 13.4639 11.7906 17.5973C11.3904 18.4882 11.0845 19.2749 11.1109 19.3456C11.1376 19.4163 11.6217 19.6208 12.1874 19.8C14.9166 20.6644 15.9774 20.965 16.3204 20.9713L16.6941 20.978L17.1298 19.9732Z" fill="#FF00FF" fill-opacity="0.38"/>
<path d="M38.6477 12.8788C38.3903 12.8157 37.0094 12.5317 35.5791 12.2475C32.416 11.6188 31.7407 11.4733 30.7611 11.2097L30 11.0049L30.293 10.7701C30.4542 10.641 30.8903 10.3525 31.2621 10.1291C31.634 9.90582 33.0851 9.02587 34.4868 8.17386C38.0599 6.00199 38.2302 5.9075 38.3361 6.03791C38.385 6.09712 38.5436 6.62933 38.6896 7.21989C39.153 9.09318 40 12.7524 40 12.8806C40 13.0405 39.3048 13.0396 38.6477 12.879L38.6477 12.8788ZM38.6477 11.85C38.6477 11.6746 37.6148 7.44146 37.5622 7.40147C37.5385 7.38329 37.4187 7.39263 37.2961 7.42223C36.9958 7.49474 32.1464 10.4567 32.1464 10.5676C32.1464 10.6814 32.5726 10.7868 35.6311 11.4293C38.3755 12.0058 38.6478 12.0438 38.6478 11.8497L38.6477 11.85Z" fill="#00FF00" fill-opacity="0.38"/>
<path d="M24.636 39.7859C24.5665 39.6673 24.219 39.0406 23.8638 38.3934C22.9773 36.7778 22.6564 36.3144 22.4242 36.3144C22.3203 36.3144 21.5765 36.5484 20.7714 36.8342C19.9662 37.1201 18.8683 37.5093 18.3316 37.699C17.7948 37.8887 17.3167 38.025 17.2691 38.0019C17.2211 37.9782 17.1301 37.8344 17.066 37.6813C16.9651 37.4402 16.9741 37.3812 17.1334 37.2407C17.2346 37.1516 17.5188 37.0108 17.7651 36.9279C18.0114 36.8451 19.0537 36.4547 20.0814 36.0605C21.5817 35.485 21.9614 35.3074 22.0086 35.1591C22.0489 35.031 21.8053 34.4744 21.2098 33.3379C20.7382 32.4377 20.3522 31.5947 20.3522 31.4646C20.3522 31.2559 20.4062 31.212 20.8086 31.0906C21.3595 30.9248 21.2713 30.8412 21.9678 32.1909C23.0393 34.2672 23.2681 34.6255 23.5392 34.6507C23.6924 34.6656 24.3566 34.4502 25.2787 34.0883C26.0991 33.7664 27.1933 33.3564 27.7102 33.1775L28.6501 32.8521L28.8274 33.0339C29.0486 33.2606 29.058 33.5162 28.8508 33.6571C28.7634 33.7164 27.6553 34.1707 26.3881 34.667L24.084 35.5691L24.0938 35.847C24.0993 36.0094 24.3836 36.6123 24.7785 37.2984C25.6209 38.7625 25.9501 39.445 25.8817 39.5854C25.8297 39.6918 25.0873 39.9964 24.8714 40C24.8116 40.0009 24.7062 39.9046 24.6366 39.786L24.636 39.7859Z" fill="#00FFFF" fill-opacity="0.38"/>
<path opacity="0.9902" d="M86.3226 23.7006H90.135V31.0165C89.1562 31.7549 88.0227 32.3217 86.7347 32.7166C85.4467 33.1116 84.1501 33.3091 82.845 33.3091C80.9731 33.3091 79.2901 32.9141 77.796 32.1242C76.3019 31.317 75.1255 30.2093 74.2669 28.8011C73.4254 27.3757 73.0046 25.77 73.0046 23.984C73.0046 22.198 73.4254 20.6009 74.2669 19.1926C75.1255 17.7673 76.3105 16.6596 77.8218 15.8696C79.333 15.0625 81.0332 14.6589 82.9222 14.6589C84.5022 14.6589 85.9362 14.9251 87.2242 15.4574C88.5122 15.9898 89.5941 16.7626 90.4699 17.7758L87.7909 20.2488C86.5029 18.8921 84.9487 18.2138 83.1283 18.2138C81.9777 18.2138 80.9559 18.4542 80.0629 18.935C79.1699 19.4159 78.4743 20.0942 77.9763 20.9701C77.4783 21.8459 77.2293 22.8506 77.2293 23.984C77.2293 25.1003 77.4783 26.0963 77.9763 26.9722C78.4743 27.848 79.1613 28.5349 80.0371 29.033C80.9301 29.5138 81.9434 29.7542 83.0768 29.7542C84.2789 29.7542 85.3609 29.4966 86.3226 28.9814V23.7006ZM99.3181 18.935C101.465 18.935 103.113 19.4502 104.264 20.4806C105.415 21.4939 105.99 23.0309 105.99 25.0917V33H102.229V31.2741C101.473 32.5621 100.065 33.2061 98.0043 33.2061C96.9396 33.2061 96.0122 33.0258 95.2222 32.6651C94.4494 32.3045 93.857 31.8065 93.4448 31.171C93.0326 30.5356 92.8266 29.8143 92.8266 29.0072C92.8266 27.7192 93.3074 26.706 94.2691 25.9675C95.248 25.2291 96.7507 24.8598 98.7771 24.8598H101.971C101.971 23.984 101.705 23.3142 101.173 22.8506C100.64 22.3697 99.8419 22.1293 98.7771 22.1293C98.0387 22.1293 97.3088 22.2495 96.5875 22.4899C95.8834 22.7132 95.2823 23.0223 94.7843 23.4173L93.3418 20.6094C94.0974 20.0771 94.999 19.6649 96.0466 19.373C97.1113 19.081 98.2018 18.935 99.3181 18.935ZM99.009 30.5013C99.6959 30.5013 100.306 30.3467 100.838 30.0376C101.37 29.7113 101.748 29.239 101.971 28.6208V27.204H99.215C97.5664 27.204 96.7421 27.745 96.7421 28.8269C96.7421 29.3421 96.9396 29.7542 97.3346 30.0634C97.7467 30.3553 98.3049 30.5013 99.009 30.5013ZM127.376 18.935C129.11 18.935 130.484 19.4502 131.497 20.4806C132.528 21.4939 133.043 23.0223 133.043 25.0659V33H129.024V25.6842C129.024 24.5851 128.792 23.7693 128.329 23.237C127.882 22.6874 127.238 22.4126 126.397 22.4126C125.452 22.4126 124.705 22.7218 124.156 23.34C123.606 23.9411 123.331 24.8427 123.331 26.0448V33H119.313V25.6842C119.313 23.5031 118.437 22.4126 116.685 22.4126C115.758 22.4126 115.019 22.7218 114.47 23.34C113.92 23.9411 113.645 24.8427 113.645 26.0448V33H109.627V19.1411H113.465V20.7382C113.98 20.1543 114.607 19.7078 115.346 19.3987C116.101 19.0896 116.926 18.935 117.819 18.935C118.797 18.935 119.682 19.1325 120.472 19.5275C121.262 19.9053 121.897 20.4635 122.378 21.2019C122.945 20.4806 123.658 19.9225 124.516 19.5275C125.392 19.1325 126.345 18.935 127.376 18.935ZM150.371 26.1221C150.371 26.1736 150.345 26.5342 150.294 27.204H139.81C139.998 28.0627 140.445 28.741 141.149 29.239C141.853 29.7371 142.729 29.9861 143.777 29.9861C144.498 29.9861 145.133 29.883 145.683 29.677C146.25 29.4537 146.773 29.1102 147.254 28.6466L149.392 30.965C148.087 32.459 146.181 33.2061 143.674 33.2061C142.111 33.2061 140.728 32.9055 139.526 32.3045C138.324 31.6862 137.397 30.8362 136.744 29.7542C136.092 28.6723 135.765 27.4444 135.765 26.0706C135.765 24.7139 136.083 23.4946 136.718 22.4126C137.371 21.3135 138.255 20.4635 139.372 19.8624C140.505 19.2442 141.767 18.935 143.158 18.935C144.515 18.935 145.743 19.227 146.842 19.8109C147.941 20.3948 148.8 21.2363 149.418 22.3354C150.053 23.4173 150.371 24.6795 150.371 26.1221ZM143.184 21.9747C142.274 21.9747 141.51 22.2323 140.892 22.7475C140.273 23.2627 139.895 23.9668 139.758 24.8598H146.584C146.447 23.984 146.069 23.2885 145.451 22.7733C144.833 22.2409 144.077 21.9747 143.184 21.9747ZM166.55 33.3091C165.125 33.3091 163.742 33.1202 162.403 32.7424C161.08 32.3474 160.016 31.8408 159.208 31.2226L160.625 28.0798C161.398 28.6466 162.317 29.1017 163.382 29.4451C164.446 29.7886 165.511 29.9603 166.576 29.9603C167.761 29.9603 168.637 29.7886 169.203 29.4451C169.77 29.0845 170.053 28.6122 170.053 28.0283C170.053 27.599 169.882 27.2469 169.538 26.9722C169.212 26.6802 168.783 26.4484 168.25 26.2766C167.735 26.1049 167.031 25.916 166.138 25.7099C164.764 25.3836 163.639 25.0573 162.763 24.731C161.888 24.4047 161.132 23.881 160.496 23.1597C159.878 22.4384 159.569 21.4767 159.569 20.2746C159.569 19.227 159.852 18.2825 160.419 17.441C160.986 16.5823 161.836 15.9039 162.969 15.4059C164.12 14.9079 165.52 14.6589 167.168 14.6589C168.319 14.6589 169.444 14.7963 170.543 15.071C171.642 15.3458 172.604 15.7408 173.428 16.256L172.14 19.4245C170.474 18.4799 168.808 18.0077 167.143 18.0077C165.975 18.0077 165.108 18.1966 164.541 18.5744C163.991 18.9522 163.716 19.4502 163.716 20.0685C163.716 20.6867 164.034 21.1504 164.67 21.4595C165.322 21.7515 166.31 22.0434 167.632 22.3354C169.006 22.6617 170.131 22.9879 171.007 23.3142C171.882 23.6405 172.629 24.1557 173.248 24.8598C173.883 25.5639 174.201 26.5171 174.201 27.7192C174.201 28.7496 173.909 29.6941 173.325 30.5528C172.758 31.3943 171.9 32.0641 170.749 32.5621C169.598 33.0601 168.199 33.3091 166.55 33.3091ZM184.961 18.935C186.249 18.935 187.416 19.2356 188.464 19.8366C189.529 20.4205 190.362 21.2534 190.963 22.3354C191.564 23.4001 191.864 24.6452 191.864 26.0706C191.864 27.4959 191.564 28.7496 190.963 29.8315C190.362 30.8963 189.529 31.7292 188.464 32.3302C187.416 32.9141 186.249 33.2061 184.961 33.2061C183.192 33.2061 181.801 32.6479 180.788 31.5317V37.9974H176.769V19.1411H180.607V20.7382C181.603 19.5361 183.054 18.935 184.961 18.935ZM184.265 29.9088C185.296 29.9088 186.137 29.5653 186.79 28.8784C187.459 28.1743 187.794 27.2383 187.794 26.0706C187.794 24.9028 187.459 23.9754 186.79 23.2885C186.137 22.5844 185.296 22.2323 184.265 22.2323C183.235 22.2323 182.385 22.5844 181.715 23.2885C181.062 23.9754 180.736 24.9028 180.736 26.0706C180.736 27.2383 181.062 28.1743 181.715 28.8784C182.385 29.5653 183.235 29.9088 184.265 29.9088ZM199.918 18.935C202.065 18.935 203.713 19.4502 204.864 20.4806C206.014 21.4939 206.59 23.0309 206.59 25.0917V33H202.829V31.2741C202.073 32.5621 200.665 33.2061 198.604 33.2061C197.539 33.2061 196.612 33.0258 195.822 32.6651C195.049 32.3045 194.457 31.8065 194.045 31.171C193.632 30.5356 193.426 29.8143 193.426 29.0072C193.426 27.7192 193.907 26.706 194.869 25.9675C195.848 25.2291 197.351 24.8598 199.377 24.8598H202.571C202.571 23.984 202.305 23.3142 201.773 22.8506C201.24 22.3697 200.442 22.1293 199.377 22.1293C198.639 22.1293 197.909 22.2495 197.187 22.4899C196.483 22.7132 195.882 23.0223 195.384 23.4173L193.942 20.6094C194.697 20.0771 195.599 19.6649 196.646 19.373C197.711 19.081 198.802 18.935 199.918 18.935ZM199.609 30.5013C200.296 30.5013 200.905 30.3467 201.438 30.0376C201.97 29.7113 202.348 29.239 202.571 28.6208V27.204H199.815C198.166 27.204 197.342 27.745 197.342 28.8269C197.342 29.3421 197.539 29.7542 197.934 30.0634C198.347 30.3553 198.905 30.5013 199.609 30.5013ZM214.065 20.9701C214.546 20.3003 215.19 19.7937 215.997 19.4502C216.821 19.1068 217.766 18.935 218.831 18.935V22.6445C218.384 22.6101 218.084 22.593 217.929 22.593C216.778 22.593 215.877 22.9193 215.224 23.5718C214.572 24.2073 214.245 25.169 214.245 26.457V33H210.227V19.1411H214.065V20.9701ZM225.058 20.9701C225.539 20.3003 226.183 19.7937 226.99 19.4502C227.815 19.1068 228.759 18.935 229.824 18.935V22.6445C229.377 22.6101 229.077 22.593 228.922 22.593C227.772 22.593 226.87 22.9193 226.217 23.5718C225.565 24.2073 225.239 25.169 225.239 26.457V33H221.22V19.1411H225.058V20.9701ZM232.213 19.1411H236.232V33H232.213V19.1411ZM234.223 17.2091C233.484 17.2091 232.883 16.9945 232.419 16.5651C231.956 16.1358 231.724 15.6034 231.724 14.968C231.724 14.3326 231.956 13.8002 232.419 13.3709C232.883 12.9415 233.484 12.7269 234.223 12.7269C234.961 12.7269 235.562 12.933 236.026 13.3451C236.489 13.7573 236.721 14.2725 236.721 14.8907C236.721 15.5605 236.489 16.1186 236.026 16.5651C235.562 16.9945 234.961 17.2091 234.223 17.2091ZM248.385 18.935C250.102 18.935 251.485 19.4502 252.532 20.4806C253.597 21.511 254.129 23.0395 254.129 25.0659V33H250.111V25.6842C250.111 24.5851 249.87 23.7693 249.39 23.237C248.909 22.6874 248.213 22.4126 247.303 22.4126C246.29 22.4126 245.483 22.7303 244.882 23.3658C244.281 23.984 243.98 24.9114 243.98 26.1478V33H239.961V19.1411H243.8V20.764C244.332 20.1801 244.993 19.7336 245.783 19.4245C246.573 19.0982 247.44 18.935 248.385 18.935ZM272.22 19.1411V30.6816C272.22 33.2233 271.559 35.1123 270.236 36.3488C268.914 37.5853 266.982 38.2035 264.44 38.2035C263.101 38.2035 261.83 38.0404 260.628 37.7141C259.426 37.3878 258.43 36.9155 257.64 36.2973L259.237 33.4122C259.821 33.893 260.559 34.2708 261.452 34.5456C262.345 34.8375 263.238 34.9835 264.131 34.9835C265.522 34.9835 266.544 34.6658 267.197 34.0304C267.866 33.4122 268.201 32.4676 268.201 31.1968V30.6043C267.154 31.7549 265.694 32.3302 263.822 32.3302C262.551 32.3302 261.383 32.0555 260.319 31.5059C259.271 30.9392 258.438 30.1492 257.82 29.136C257.202 28.1228 256.893 26.955 256.893 25.6326C256.893 24.3103 257.202 23.1425 257.82 22.1293C258.438 21.1161 259.271 20.3347 260.319 19.7851C261.383 19.2184 262.551 18.935 263.822 18.935C265.831 18.935 267.36 19.5962 268.407 20.9186V19.1411H272.22ZM264.621 29.033C265.685 29.033 266.553 28.7238 267.222 28.1056C267.909 27.4702 268.253 26.6459 268.253 25.6326C268.253 24.6194 267.909 23.8037 267.222 23.1854C266.553 22.55 265.685 22.2323 264.621 22.2323C263.556 22.2323 262.68 22.55 261.993 23.1854C261.306 23.8037 260.963 24.6194 260.963 25.6326C260.963 26.6459 261.306 27.4702 261.993 28.1056C262.68 28.7238 263.556 29.033 264.621 29.033Z" fill="white"/>
</g>
</g>
<defs>
<filter id="filter0_i" x="0" y="0" width="298" height="53" filterUnits="userSpaceOnUse" color-interpolation-filters="sRGB">
<feFlood flood-opacity="0" result="BackgroundImageFix"/>
<feBlend mode="normal" in="SourceGraphic" in2="BackgroundImageFix" result="shape"/>
<feColorMatrix in="SourceAlpha" type="matrix" values="0 0 0 0 0 0 0 0 0 0 0 0 0 0 0 0 0 0 127 0" result="hardAlpha"/>
<feOffset/>
<feGaussianBlur stdDeviation="2"/>
<feComposite in2="hardAlpha" operator="arithmetic" k2="-1" k3="1"/>
<feColorMatrix type="matrix" values="0 0 0 0 0.0124305 0 0 0 0 0.3938 0 0 0 0 0.745833 0 0 0 0.25 0"/>
<feBlend mode="normal" in2="shape" result="effect1_innerShadow"/>
</filter>
<filter id="filter1_i" x="5" y="0" width="267.22" height="56" filterUnits="userSpaceOnUse" color-interpolation-filters="sRGB">
<feFlood flood-opacity="0" result="BackgroundImageFix"/>
<feBlend mode="normal" in="SourceGraphic" in2="BackgroundImageFix" result="shape"/>
<feColorMatrix in="SourceAlpha" type="matrix" values="0 0 0 0 0 0 0 0 0 0 0 0 0 0 0 0 0 0 127 0" result="hardAlpha"/>
<feOffset dy="4"/>
<feGaussianBlur stdDeviation="2"/>
<feComposite in2="hardAlpha" operator="arithmetic" k2="-1" k3="1"/>
<feColorMatrix type="matrix" values="0 0 0 0 0 0 0 0 0 0 0 0 0 0 0 0 0 0 0.25 0"/>
<feBlend mode="normal" in2="shape" result="effect1_innerShadow"/>
</filter>
</defs>
</svg>
