<svg xmlns="http://www.w3.org/2000/svg" width="23" height="18" viewBox="0 0 23 18">
    <path fill="#1DA1F2" fill-rule="evenodd" d="M23 2.133v.014c-.011.01-.026.021-.034.032-.202.255-.39.52-.605.766a8.365 8.365 0 0 1-1.556 1.415c-.117.082-.162.161-.156.306.025.725-.003 1.449-.131 2.168-.08.459-.168.918-.281 1.372-.259 1.024-.656 2-1.165 2.938a13.178 13.178 0 0 1-3.231 3.921c-.75.61-1.562 1.132-2.44 1.564-.732.358-1.493.642-2.286.858-.647.18-1.309.314-1.976.393-.449.05-.898.077-1.35.104-.837.044-1.67-.005-2.496-.117a13.218 13.218 0 0 1-2.016-.438A13.647 13.647 0 0 1 .04 15.995c-.012-.009-.02-.02-.04-.036 1.255.128 2.476.046 3.678-.279a9.302 9.302 0 0 0 3.268-1.599c-2.286-.062-3.887-1.61-4.379-3.159a4.82 4.82 0 0 0 2.082-.076c-1.093-.25-2.002-.78-2.704-1.621C1.244 8.38.91 7.418.903 6.325a4.75 4.75 0 0 0 2.107.56c-1.002-.69-1.67-1.598-1.945-2.757-.27-1.159-.088-2.257.514-3.296 2.553 2.9 5.785 4.493 9.735 4.755-.009-.04-.011-.065-.014-.087-.034-.21-.077-.421-.094-.634-.037-.46.003-.916.114-1.364.272-1.088.88-1.968 1.814-2.629a4.662 4.662 0 0 1 2.374-.855c.497-.041.989-.011 1.472.098a4.69 4.69 0 0 1 2.34 1.274c.034.03.06.038.102.03A9.57 9.57 0 0 0 22.253.39c.034-.02.068-.03.11-.055-.371 1.07-1.058 1.89-2.044 2.498.026 0 .034.002.043 0 .037-.003.076-.009.11-.014a8.344 8.344 0 0 0 1.511-.325c.344-.11.68-.24 1.017-.361"/>
</svg>
