<?xml version="1.0" encoding="UTF-8"?>
<svg width="26px" height="26px" viewBox="0 0 26 26" version="1.1" xmlns="http://www.w3.org/2000/svg" xmlns:xlink="http://www.w3.org/1999/xlink">
    <!-- Generator: Sketch 61.2 (89653) - https://sketch.com -->
    <title>Ellipse_25 2</title>
    <desc>Created with Sketch.</desc>
    <defs>
        <linearGradient x1="50%" y1="-7.0801199%" x2="32.180992%" y2="100%" id="linearGradient-1">
            <stop stop-color="#5C41CC" offset="0%"></stop>
            <stop stop-color="#DB2383" offset="51.6047297%"></stop>
            <stop stop-color="#FFCC7F" offset="100%"></stop>
        </linearGradient>
    </defs>
    <g id="Page-1" stroke="none" stroke-width="1" fill="none" fill-rule="evenodd">
        <g id="home-insta" transform="translate(-1013.000000, -842.000000)" fill="url(#linearGradient-1)">
            <path d="M1025.54556,841.998886 C1028.95174,841.998886 1029.38086,842.014038 1030.72568,842.068408 C1031.76742,842.088427 1032.7982,842.285234 1033.77405,842.650437 C1034.61005,842.96843 1035.36769,843.462899 1035.99538,844.100161 C1036.63524,844.725727 1037.13005,845.484095 1037.44492,846.321764 C1037.80962,847.29867 1038.00667,848.330175 1038.02777,849.372737 C1038.0817,850.583143 1038.09928,851.045675 1038.10218,853.638346 L1038.10218,855.458862 C1038.09928,858.051533 1038.0817,858.514066 1038.02777,859.724472 C1038.00747,860.766392 1037.81038,861.797298 1037.44492,862.773216 C1037.12697,863.609318 1036.63256,864.367058 1035.99538,864.994819 C1035.37002,865.634705 1034.6119,866.12958 1033.77449,866.444543 C1032.79841,866.809039 1031.76781,867.006114 1030.72613,867.027463 C1029.47265,867.083329 1029.02132,867.100193 1026.17502,867.102137 L1024.92679,867.102137 C1022.08049,867.100193 1021.62916,867.083329 1020.37568,867.027463 C1019.33389,867.007159 1018.30311,866.81005 1017.32731,866.444543 C1016.49132,866.126551 1015.73367,865.632081 1015.10599,864.994819 C1014.46607,864.368693 1013.97139,863.6097 1013.65689,862.771433 C1013.29244,861.795232 1013.09539,860.7645 1013.07404,859.722689 C1013.02396,858.598741 1013.00523,858.115881 1013.00049,855.979276 L1013.00049,853.114419 C1013.00523,850.978022 1013.02396,850.496139 1013.07404,849.376302 C1013.0942,848.334407 1013.29113,847.303502 1013.65644,846.327558 C1013.9744,845.491456 1014.4688,844.733715 1015.10599,844.105955 C1015.73151,843.466164 1016.48978,842.971438 1017.32731,842.656676 C1018.30153,842.291605 1019.33063,842.094501 1020.37078,842.073756 C1021.49459,842.02367 1021.97707,842.004933 1024.112,842.000454 L1025.54333,841.999331 Z M1026.17771,844.260809 L1025.54556,844.260598 C1022.19596,844.261044 1021.7976,844.271294 1020.47282,844.335914 C1019.67682,844.346224 1018.88845,844.492732 1018.14188,844.769093 C1017.59576,844.967521 1017.10191,845.287549 1016.69768,845.704974 C1016.28191,846.110745 1015.96217,846.60441 1015.76191,847.149796 C1015.48392,847.895772 1015.3381,848.684513 1015.33102,849.480586 C1015.27728,850.673032 1015.25963,851.111024 1015.25664,853.630804 L1015.25664,855.472644 C1015.25963,857.992423 1015.27728,858.430416 1015.33102,859.622862 C1015.34132,860.418965 1015.48782,861.20743 1015.76414,861.954097 C1015.96255,862.500279 1016.28253,862.99419 1016.69991,863.398473 C1017.1055,863.814243 1017.59894,864.13401 1018.1441,864.334354 C1018.88999,864.613206 1019.67879,864.759796 1020.47505,864.767534 C1021.71151,864.82327 1022.13669,864.840186 1024.9134,864.842193 L1026.17771,864.842193 C1028.95442,864.840186 1029.37961,864.82327 1030.61606,864.767534 C1031.41207,864.757224 1032.20044,864.610715 1032.94701,864.334354 C1033.49312,864.135927 1033.98697,863.815898 1034.39121,863.398473 C1034.80692,862.992831 1035.12665,862.499323 1035.32697,861.954097 C1035.60578,861.208116 1035.75235,860.419216 1035.7601,859.622862 C1035.81185,858.47458 1035.83013,858.025902 1035.83408,855.744197 L1035.83408,853.359251 C1035.83013,851.077545 1035.81185,850.628867 1035.7601,849.480586 C1035.74979,848.684482 1035.6033,847.896018 1035.32697,847.149351 C1035.12863,846.603009 1034.80864,846.10894 1034.39121,845.704529 C1033.98562,845.288759 1033.49217,844.968992 1032.94701,844.768648 C1032.20112,844.489805 1031.41232,844.343215 1030.61606,844.335468 C1029.37961,844.279732 1028.95442,844.262816 1026.17771,844.260809 Z M1025.5509,848.274748 C1029.01677,848.275227 1031.82629,851.084745 1031.82677,854.55061 C1031.82677,858.016673 1029.01697,860.826472 1025.5509,860.826472 C1022.08484,860.826472 1019.27504,858.016673 1019.27504,854.55061 C1019.27504,851.084547 1022.08484,848.274748 1025.5509,848.274748 Z M1025.5509,850.471994 C1023.30098,850.471994 1021.47706,852.295915 1021.47706,854.545837 C1021.47706,856.795758 1023.30098,858.61968 1025.5509,858.61968 C1026.63139,858.619795 1027.66765,858.190625 1028.43167,857.426606 C1029.19569,856.662587 1029.62486,855.626323 1029.62475,854.545837 C1029.62475,852.295915 1027.80083,850.471994 1025.5509,850.471994 Z M1032.27504,846.481644 C1033.01777,846.481644 1033.61987,847.083744 1033.61987,847.826472 C1033.61987,848.5692 1033.01777,849.171299 1032.27504,849.171299 C1031.53231,849.171299 1030.93021,848.5692 1030.93021,847.826472 C1030.93021,847.083744 1031.53231,846.481644 1032.27504,846.481644 Z" id="Ellipse_25-2"></path>
        </g>
    </g>
</svg>